<svg viewBox="0 0 200 340" xmlns="http://www.w3.org/2000/svg">
  <defs>
    <linearGradient id="grad10h" x1="0%" y1="0%" x2="100%" y2="100%">
      <stop offset="0%" style="stop-color:#60a5fa"/>
      <stop offset="50%" style="stop-color:#a855f7"/>
      <stop offset="100%" style="stop-color:#ec4899"/>
    </linearGradient>
    <linearGradient id="smoke10h" x1="100%" y1="0%" x2="0%" y2="100%">
      <stop offset="0%" style="stop-color:#a855f7"/>
      <stop offset="50%" style="stop-color:#8888aa"/>
      <stop offset="100%" style="stop-color:#60a5fa"/>
    </linearGradient>
  </defs>
  
  <!-- Rocket A -->
  <path d="M 100 10
           L 58 105
           L 42 132
           L 72 118
           L 72 128
           L 100 145
           L 128 128
           L 128 118
           L 158 132
           L 142 105
           L 100 10
           Z"
        fill="url(#grad10h)"/>
  
  <!-- A crossbar -->
  <rect x="70" y="75" width="60" height="18" rx="2" fill="#0a0a0a"/>
  
  <!-- CLASSIC S LETTERFORM -->
  <!-- Top of S - curves right -->
  <path d="M 100 145
           Q 100 155, 115 162
           Q 155 175, 160 195
           Q 165 220, 130 235"
        fill="none" 
        stroke="url(#smoke10h)" 
        stroke-width="26" 
        stroke-linecap="round"/>
  
  <!-- Bottom of S - curves left then right -->
  <path d="M 130 235
           Q 85 250, 50 265
           Q 25 280, 45 305
           Q 65 330, 120 325
           Q 160 320, 175 300"
        fill="none" 
        stroke="url(#smoke10h)" 
        stroke-width="26" 
        stroke-linecap="round"/>
  
  <!-- Highlight -->
  <path d="M 105 152 Q 130 165, 145 185" 
        fill="none" stroke="white" stroke-width="8" stroke-linecap="round" opacity="0.3"/>
</svg>
