<svg viewBox="0 0 380 300" xmlns="http://www.w3.org/2000/svg">
  <defs>
    <linearGradient id="grad11b" x1="0%" y1="0%" x2="100%" y2="100%">
      <stop offset="0%" style="stop-color:#60a5fa"/>
      <stop offset="50%" style="stop-color:#a855f7"/>
      <stop offset="100%" style="stop-color:#ec4899"/>
    </linearGradient>
    <linearGradient id="smoke11b" x1="0%" y1="0%" x2="100%" y2="100%">
      <stop offset="0%" style="stop-color:#ec4899"/>
      <stop offset="50%" style="stop-color:#a855f7"/>
      <stop offset="100%" style="stop-color:#60a5fa"/>
    </linearGradient>
  </defs>
  
  <!-- Rocket A - larger -->
  <path d="M 55 5
           L 20 90
           L 5 118
           L 38 105
           L 38 115
           L 55 130
           L 72 115
           L 72 105
           L 105 118
           L 90 90
           L 55 5
           Z"
        fill="url(#grad11b)"/>
  
  <!-- A crossbar -->
  <rect x="35" y="60" width="40" height="14" rx="2" fill="#0a0a0a"/>
  
  <!-- All letters in SMOKE style -->
  
  <!-- "p" -->
  <path d="M 115 130 L 115 80 
           C 115 65, 145 65, 145 85 
           C 145 105, 115 105, 115 95"
        fill="none" stroke="url(#smoke11b)" stroke-width="16" stroke-linecap="round" stroke-linejoin="round"/>
  
  <!-- "e" -->
  <path d="M 160 95 L 195 95 
           C 195 75, 160 75, 160 95 
           C 160 115, 195 120, 195 105"
        fill="none" stroke="url(#smoke11b)" stroke-width="16" stroke-linecap="round"/>
  
  <!-- "x" -->
  <path d="M 210 75 L 250 125"
        fill="none" stroke="url(#smoke11b)" stroke-width="16" stroke-linecap="round"/>
  <path d="M 250 75 L 210 125"
        fill="none" stroke="url(#smoke11b)" stroke-width="16" stroke-linecap="round"/>
  
  <!-- Trail connecting to second row -->
  <path d="M 55 130 C 40 160, 30 180, 55 200"
        fill="none" stroke="url(#smoke11b)" stroke-width="12" stroke-linecap="round" opacity="0.6"/>
  
  <!-- "S" -->
  <path d="M 100 175 
           C 130 170, 140 185, 125 200 
           C 110 215, 70 220, 60 240 
           C 50 260, 80 275, 115 270"
        fill="none" stroke="url(#smoke11b)" stroke-width="16" stroke-linecap="round"/>
  
  <!-- "y" -->
  <path d="M 135 180 L 155 220 L 175 180"
        fill="none" stroke="url(#smoke11b)" stroke-width="16" stroke-linecap="round" stroke-linejoin="round"/>
  <path d="M 155 220 L 145 270"
        fill="none" stroke="url(#smoke11b)" stroke-width="16" stroke-linecap="round"/>
  
  <!-- "n" -->
  <path d="M 190 270 L 190 210 
           C 190 195, 230 195, 230 210 
           L 230 270"
        fill="none" stroke="url(#smoke11b)" stroke-width="16" stroke-linecap="round"/>
  
  <!-- "c" -->
  <path d="M 290 210 
           C 260 200, 250 230, 260 255 
           C 270 280, 300 275, 300 260"
        fill="none" stroke="url(#smoke11b)" stroke-width="16" stroke-linecap="round"/>
</svg>
