<svg viewBox="0 0 200 300" xmlns="http://www.w3.org/2000/svg" style="transform: scaleX(-1);">
  <defs>
    <linearGradient id="sleekGrad7a" x1="0%" y1="0%" x2="100%" y2="100%">
      <stop offset="0%" style="stop-color:#60a5fa"/>
      <stop offset="50%" style="stop-color:#a855f7"/>
      <stop offset="100%" style="stop-color:#ec4899"/>
    </linearGradient>
    <linearGradient id="sleekFlame7a" x1="0%" y1="0%" x2="0%" y2="100%">
      <stop offset="0%" style="stop-color:#a855f7"/>
      <stop offset="100%" style="stop-color:#ec4899;stop-opacity:0"/>
    </linearGradient>
  </defs>
  
  <!-- Sleek rocket silhouette -->
  <path d="M 100 5
           C 140 20, 155 60, 155 100
           L 155 190
           L 175 220
           L 155 210
           L 155 230
           L 100 250
           L 45 230
           L 45 210
           L 25 220
           L 45 190
           L 45 100
           C 45 60, 60 20, 100 5
           Z"
        fill="url(#sleekGrad7a)"/>
  
  <!-- Dark body panel -->
  <path d="M 100 25
           C 125 35, 135 60, 135 90
           L 135 200
           L 100 215
           L 65 200
           L 65 90
           C 65 60, 75 35, 100 25
           Z"
        fill="#0a0a0a"/>
  
  <!-- BIGGER, BOLDER AS -->
  <g transform="translate(100, 120) scale(0.7)">
    <!-- Thick S -->
    <path d="M 30 -45
             C 55 -50, 60 -30, 50 -15
             C 40 0, 5 5, -10 12
             C -25 20, -35 35, -25 48
             C -15 60, 15 58, 35 48"
          fill="none" stroke="url(#sleekGrad7a)" stroke-width="14" stroke-linecap="round"/>
    <!-- Extra Bold A -->
    <polygon points="0,-45 -40,55 -18,55 -10,30 20,30 28,55 50,55 18,-45" fill="white"/>
    <polygon points="0,-12 -6,22 14,22" fill="#0a0a0a"/>
  </g>
  
  <!-- Exhaust trail -->
  <ellipse cx="100" cy="280" rx="30" ry="15" fill="url(#sleekFlame7a)"/>
  <ellipse cx="100" cy="265" rx="20" ry="10" fill="#a855f7" opacity="0.5"/>
</svg>
