<svg viewBox="0 0 200 300" xmlns="http://www.w3.org/2000/svg" style="transform: scaleX(-1);">
  <defs>
    <linearGradient id="grad12a" x1="0%" y1="0%" x2="100%" y2="100%">
      <stop offset="0%" style="stop-color:#60a5fa"/>
      <stop offset="50%" style="stop-color:#a855f7"/>
      <stop offset="100%" style="stop-color:#ec4899"/>
    </linearGradient>
  </defs>
  
  <!-- Rocket body -->
  <path d="M 100 5 C 140 20, 155 60, 155 100 L 155 190 L 175 220 L 155 210 L 155 230 L 100 250 L 45 230 L 45 210 L 25 220 L 45 190 L 45 100 C 45 60, 60 20, 100 5 Z" fill="url(#grad12a)"/>
  <path d="M 100 25 C 125 35, 135 60, 135 90 L 135 200 L 100 215 L 65 200 L 65 90 C 65 60, 75 35, 100 25 Z" fill="#0a0a0a"/>
  
  <!-- GLITCH AS - offset copies -->
  <g transform="translate(100, 120) scale(-1,1)">
    <!-- Glitch layers -->
    <text x="-22" y="-15" font-family="monospace" font-size="48" font-weight="900" fill="#ff0050" opacity="0.7" transform="translate(-3, 0)">A</text>
    <text x="-22" y="-15" font-family="monospace" font-size="48" font-weight="900" fill="#00ffff" opacity="0.7" transform="translate(3, 0)">A</text>
    <text x="-22" y="-15" font-family="monospace" font-size="48" font-weight="900" fill="white">A</text>
    
    <text x="-18" y="35" font-family="monospace" font-size="42" font-weight="900" fill="#ff0050" opacity="0.7" transform="translate(-2, 0)">S</text>
    <text x="-18" y="35" font-family="monospace" font-size="42" font-weight="900" fill="#00ffff" opacity="0.7" transform="translate(2, 0)">S</text>
    <text x="-18" y="35" font-family="monospace" font-size="42" font-weight="900" fill="white">S</text>
  </g>
  
  <!-- Exhaust -->
  <ellipse cx="100" cy="270" rx="25" ry="12" fill="#a855f7" opacity="0.5"/>
</svg>
