<svg viewBox="0 0 200 280" xmlns="http://www.w3.org/2000/svg">
  <defs>
    <linearGradient id="rocketGrad9" x1="0%" y1="0%" x2="100%" y2="100%">
      <stop offset="0%" style="stop-color:#60a5fa"/>
      <stop offset="50%" style="stop-color:#a855f7"/>
      <stop offset="100%" style="stop-color:#ec4899"/>
    </linearGradient>
    <linearGradient id="smokeGrad9" x1="0%" y1="0%" x2="0%" y2="100%">
      <stop offset="0%" style="stop-color:#a855f7"/>
      <stop offset="60%" style="stop-color:#60a5fa"/>
      <stop offset="100%" style="stop-color:#60a5fa;stop-opacity:0.3"/>
    </linearGradient>
  </defs>
  
  <!-- THE "A" - Rocket shape -->
  <path d="M 100 10
           L 55 140
           L 40 165
           L 70 150
           L 70 160
           L 100 175
           L 130 160
           L 130 150
           L 160 165
           L 145 140
           L 100 10
           Z"
        fill="url(#rocketGrad9)"/>
  
  <!-- A crossbar / window -->
  <path d="M 75 110 L 125 110 L 120 125 L 80 125 Z" fill="#0a0a0a"/>
  
  <!-- THE "S" - Smoke/exhaust trail -->
  <path d="M 115 170
           C 140 175, 160 190, 155 210
           C 150 230, 120 235, 100 240
           C 70 248, 45 255, 50 270
           C 55 280, 85 278, 110 270"
        fill="none" 
        stroke="url(#smokeGrad9)" 
        stroke-width="18" 
        stroke-linecap="round"/>
  
  <!-- Inner smoke detail -->
  <path d="M 110 175
           C 130 180, 145 192, 142 208
           C 139 224, 115 230, 100 235
           C 78 242, 60 250, 62 262"
        fill="none" 
        stroke="white" 
        stroke-width="6" 
        stroke-linecap="round"
        opacity="0.3"/>
</svg>
