<svg viewBox="0 0 200 300" xmlns="http://www.w3.org/2000/svg" style="transform: scaleX(-1);">
  <defs>
    <linearGradient id="grad12d" x1="0%" y1="0%" x2="100%" y2="100%">
      <stop offset="0%" style="stop-color:#60a5fa"/>
      <stop offset="50%" style="stop-color:#a855f7"/>
      <stop offset="100%" style="stop-color:#ec4899"/>
    </linearGradient>
  </defs>
  
  <!-- Rocket body -->
  <path d="M 100 5 C 140 20, 155 60, 155 100 L 155 190 L 175 220 L 155 210 L 155 230 L 100 250 L 45 230 L 45 210 L 25 220 L 45 190 L 45 100 C 45 60, 60 20, 100 5 Z" fill="url(#grad12d)"/>
  <path d="M 100 25 C 125 35, 135 60, 135 90 L 135 200 L 100 215 L 65 200 L 65 90 C 65 60, 75 35, 100 25 Z" fill="#0a0a0a"/>
  
  <!-- INTERTWINED AS - S weaves through A -->
  <g transform="translate(100, 118) scale(-1,1)">
    <!-- A shape -->
    <path d="M 0 -45 L -28 45 L -18 45 L -12 25 L 12 25 L 18 45 L 28 45 L 0 -45 Z M 0 -15 L -8 18 L 8 18 Z" fill="white"/>
    
    <!-- S weaving through - goes behind A top, in front at middle, behind at bottom -->
    <path d="M 20 -35 C 35 -35, 35 -15, 20 -10" stroke="url(#grad12d)" stroke-width="10" fill="none" stroke-linecap="round"/>
    <path d="M 20 -10 C -15 0, -25 15, -15 30 C -5 45, 25 45, 30 35" stroke="url(#grad12d)" stroke-width="10" fill="none" stroke-linecap="round"/>
  </g>
  
  <ellipse cx="100" cy="270" rx="25" ry="12" fill="#a855f7" opacity="0.5"/>
</svg>
