<svg viewBox="0 0 200 200" xmlns="http://www.w3.org/2000/svg">
  <defs>
    <linearGradient id="grad3a" x1="0%" y1="0%" x2="100%" y2="100%">
      <stop offset="0%" style="stop-color:#60a5fa"/>
      <stop offset="100%" style="stop-color:#a855f7"/>
    </linearGradient>
    <linearGradient id="grad3b" x1="0%" y1="100%" x2="100%" y2="0%">
      <stop offset="0%" style="stop-color:#a855f7"/>
      <stop offset="100%" style="stop-color:#ec4899"/>
    </linearGradient>
  </defs>
  
  <!-- Geometric S - top curve -->
  <path d="M 45 60 
           C 45 30, 80 20, 120 25
           C 160 30, 175 50, 170 75
           C 165 95, 140 105, 100 105"
        fill="none" stroke="url(#grad3a)" stroke-width="20" stroke-linecap="round"/>
  
  <!-- Geometric S - bottom curve -->
  <path d="M 100 105
           C 60 105, 35 115, 30 140
           C 25 165, 50 185, 90 185
           C 130 185, 160 170, 160 150"
        fill="none" stroke="url(#grad3b)" stroke-width="20" stroke-linecap="round"/>
  
  <!-- Bold A in center -->
  <path d="M 100 45
           L 60 165
           L 80 165
           L 88 145
           L 136 145
           L 144 165
           L 164 165
           L 124 45
           Z"
        fill="white"/>
  <!-- A crossbar cutout -->
  <path d="M 94 130
           L 106 90
           L 118 130
           Z"
        fill="#000"/>
</svg>
