<svg viewBox="0 0 200 200" xmlns="http://www.w3.org/2000/svg">
  <defs>
    <linearGradient id="grad4" x1="0%" y1="0%" x2="100%" y2="100%">
      <stop offset="0%" style="stop-color:#60a5fa"/>
      <stop offset="40%" style="stop-color:#a855f7"/>
      <stop offset="100%" style="stop-color:#ec4899"/>
    </linearGradient>
  </defs>
  
  <!-- Unified AS monogram - S wraps A tightly -->
  <g fill="url(#grad4)">
    <!-- Top of S flowing into A -->
    <path d="M 155 40
             C 175 40, 185 55, 180 75
             C 175 95, 155 100, 130 100
             L 115 100
             L 100 60
             L 105 40
             C 125 35, 145 35, 155 40
             Z"/>
    
    <!-- Bottom of S cradling A -->
    <path d="M 70 110
             C 40 115, 20 140, 30 165
             C 40 190, 75 195, 110 190
             C 145 185, 170 170, 170 155
             L 170 145
             C 160 155, 135 165, 105 170
             C 75 175, 55 165, 55 150
             C 55 135, 75 125, 100 120
             L 85 160
             L 140 160
             L 155 120
             C 130 115, 95 110, 70 110
             Z"/>
  </g>
  
  <!-- A center (white for contrast) -->
  <path d="M 100 50
           L 70 160
           L 90 160
           L 97 140
           L 127 140
           L 134 160
           L 154 160
           L 124 50
           Z
           M 102 125
           L 112 95
           L 122 125
           Z"
        fill="white"/>
</svg>
