<svg viewBox="0 0 220 340" xmlns="http://www.w3.org/2000/svg">
  <defs>
    <linearGradient id="grad10i" x1="0%" y1="0%" x2="100%" y2="100%">
      <stop offset="0%" style="stop-color:#60a5fa"/>
      <stop offset="50%" style="stop-color:#a855f7"/>
      <stop offset="100%" style="stop-color:#ec4899"/>
    </linearGradient>
    <linearGradient id="smoke10i" x1="0%" y1="0%" x2="100%" y2="100%">
      <stop offset="0%" style="stop-color:#a855f7"/>
      <stop offset="100%" style="stop-color:#60a5fa"/>
    </linearGradient>
  </defs>
  
  <!-- Rocket A -->
  <path d="M 70 10
           L 35 95
           L 20 120
           L 50 108
           L 50 118
           L 70 132
           L 90 118
           L 90 108
           L 120 120
           L 105 95
           L 70 10
           Z"
        fill="url(#grad10i)"/>
  
  <!-- A crossbar -->
  <rect x="48" y="68" width="44" height="14" rx="2" fill="#0a0a0a"/>
  
  <!-- S that goes RIGHT first, then LEFT, then RIGHT -->
  <!-- From rocket, curves RIGHT -->
  <path d="M 70 132
           C 80 150, 120 160, 160 170
           C 200 180, 200 210, 160 230
           C 120 250, 60 260, 30 280
           C 0 300, 20 330, 70 330
           C 110 330, 150 315, 180 295"
        fill="none" 
        stroke="url(#smoke10i)" 
        stroke-width="24" 
        stroke-linecap="round"/>
</svg>
